<svg id="visual" viewBox="0 0 1920 1080" width="1920" height="1080" xmlns="http://www.w3.org/2000/svg" xmlns:xlink="http://www.w3.org/1999/xlink" version="1.1"><rect x="0" y="0" width="1920" height="1080" fill="#001220"></rect><defs><linearGradient id="grad1_0" x1="43.8%" y1="0%" x2="100%" y2="100%"><stop offset="14.444444444444446%" stop-color="#001220" stop-opacity="1"></stop><stop offset="85.55555555555554%" stop-color="#001220" stop-opacity="1"></stop></linearGradient></defs><defs><linearGradient id="grad2_0" x1="0%" y1="0%" x2="56.3%" y2="100%"><stop offset="14.444444444444446%" stop-color="#001220" stop-opacity="1"></stop><stop offset="85.55555555555554%" stop-color="#001220" stop-opacity="1"></stop></linearGradient></defs><g transform="translate(1920, 0)"><path d="M0 702C-77.9 658.6 -155.9 615.1 -243.4 587.6C-330.9 560 -428 548.4 -496.4 496.4C-564.7 444.4 -604.3 352 -633.8 262.5C-663.3 173.1 -682.6 86.5 -702 0L0 0Z" fill="#FBAE3C"></path></g><g transform="translate(0, 1080)"><path d="M0 -702C79.5 -664.5 158.9 -627.1 248.4 -599.6C337.8 -572.1 437.1 -554.7 496.4 -496.4C555.6 -438.1 574.8 -339 602.4 -249.5C630 -160 666 -80 702 0L0 0Z" fill="#FBAE3C"></path></g></svg>